<mxfile host="app.diagrams.net" modified="2023-05-25T08:16:27.185Z" agent="Mozilla/5.0 (X11; Ubuntu; Linux x86_64; rv:109.0) Gecko/20100101 Firefox/113.0" etag="SOkob_lc6EnpH5yGXHGE" version="21.3.2" type="device">
  <diagram name="Page-1" id="wRa7nE40LtsUSWH7oz2Q">
    <mxGraphModel dx="1041" dy="634" grid="1" gridSize="10" guides="1" tooltips="1" connect="1" arrows="1" fold="1" page="1" pageScale="1" pageWidth="850" pageHeight="1100" math="0" shadow="0">
      <root>
        <mxCell id="0" />
        <mxCell id="1" parent="0" />
        <mxCell id="VLCk3PX00tIKe8Ib5w_5-1" value="teleop_twist_keyboard" style="rounded=1;whiteSpace=wrap;html=1;fillColor=#dae8fc;strokeColor=#6c8ebf;" parent="1" vertex="1">
          <mxGeometry x="50" y="215" width="140" height="30" as="geometry" />
        </mxCell>
        <mxCell id="VLCk3PX00tIKe8Ib5w_5-2" value="robot_controller_node" style="rounded=1;whiteSpace=wrap;html=1;fillColor=#f8cecc;strokeColor=#b85450;" parent="1" vertex="1">
          <mxGeometry x="495" y="215" width="140" height="30" as="geometry" />
        </mxCell>
        <mxCell id="VLCk3PX00tIKe8Ib5w_5-3" value="" style="endArrow=classic;html=1;rounded=0;exitX=1;exitY=0.5;exitDx=0;exitDy=0;entryX=0;entryY=0.5;entryDx=0;entryDy=0;" parent="1" source="VLCk3PX00tIKe8Ib5w_5-1" target="VLCk3PX00tIKe8Ib5w_5-2" edge="1">
          <mxGeometry relative="1" as="geometry">
            <mxPoint x="280" y="229.5" as="sourcePoint" />
            <mxPoint x="380" y="229.5" as="targetPoint" />
          </mxGeometry>
        </mxCell>
        <mxCell id="VLCk3PX00tIKe8Ib5w_5-4" value="/cmd_vel&lt;br&gt;geometry_msgs/Twist" style="edgeLabel;resizable=0;html=1;align=center;verticalAlign=middle;" parent="VLCk3PX00tIKe8Ib5w_5-3" connectable="0" vertex="1">
          <mxGeometry relative="1" as="geometry" />
        </mxCell>
        <mxCell id="VLCk3PX00tIKe8Ib5w_5-5" value="" style="endArrow=classic;html=1;rounded=0;exitX=1;exitY=0.5;exitDx=0;exitDy=0;" parent="1" source="VLCk3PX00tIKe8Ib5w_5-2" target="VLCk3PX00tIKe8Ib5w_5-7" edge="1">
          <mxGeometry relative="1" as="geometry">
            <mxPoint x="520" y="230" as="sourcePoint" />
            <mxPoint x="470" y="240" as="targetPoint" />
          </mxGeometry>
        </mxCell>
        <mxCell id="VLCk3PX00tIKe8Ib5w_5-6" value="&lt;div&gt;/duty_cycle&lt;/div&gt;&lt;div&gt;std_msgs/String&lt;br&gt;&lt;/div&gt;" style="edgeLabel;resizable=0;html=1;align=center;verticalAlign=middle;" parent="VLCk3PX00tIKe8Ib5w_5-5" connectable="0" vertex="1">
          <mxGeometry relative="1" as="geometry">
            <mxPoint x="-3" as="offset" />
          </mxGeometry>
        </mxCell>
        <mxCell id="VLCk3PX00tIKe8Ib5w_5-7" value="motor_driver_node" style="rounded=1;whiteSpace=wrap;html=1;fillColor=#e1d5e7;strokeColor=#9673a6;" parent="1" vertex="1">
          <mxGeometry x="790" y="215" width="120" height="30" as="geometry" />
        </mxCell>
        <mxCell id="VLCk3PX00tIKe8Ib5w_5-8" value="rplidarNode" style="rounded=1;whiteSpace=wrap;html=1;fillColor=#dae8fc;strokeColor=#6c8ebf;" parent="1" vertex="1">
          <mxGeometry x="545" y="305" width="90" height="30" as="geometry" />
        </mxCell>
        <mxCell id="VLCk3PX00tIKe8Ib5w_5-10" value="RViz" style="rounded=1;whiteSpace=wrap;html=1;fillColor=#dae8fc;strokeColor=#6c8ebf;" parent="1" vertex="1">
          <mxGeometry x="105" y="305" width="50" height="30" as="geometry" />
        </mxCell>
        <mxCell id="VLCk3PX00tIKe8Ib5w_5-11" value="" style="endArrow=classic;html=1;rounded=0;exitX=0;exitY=0.5;exitDx=0;exitDy=0;entryX=1;entryY=0.5;entryDx=0;entryDy=0;" parent="1" source="VLCk3PX00tIKe8Ib5w_5-8" target="VLCk3PX00tIKe8Ib5w_5-10" edge="1">
          <mxGeometry relative="1" as="geometry">
            <mxPoint x="250" y="369.5" as="sourcePoint" />
            <mxPoint x="350" y="369.5" as="targetPoint" />
          </mxGeometry>
        </mxCell>
        <mxCell id="VLCk3PX00tIKe8Ib5w_5-12" value="/scan&lt;br&gt;sensor_msgs/LaserScan" style="edgeLabel;resizable=0;html=1;align=center;verticalAlign=middle;" parent="VLCk3PX00tIKe8Ib5w_5-11" connectable="0" vertex="1">
          <mxGeometry relative="1" as="geometry" />
        </mxCell>
        <mxCell id="IHQPnhAprt_sBTRfJRE9-3" value="command laptop" style="shape=umlFrame;whiteSpace=wrap;html=1;pointerEvents=0;width=120;height=30;" parent="1" vertex="1">
          <mxGeometry y="160" width="240" height="200" as="geometry" />
        </mxCell>
        <mxCell id="IHQPnhAprt_sBTRfJRE9-4" value="RPi" style="shape=umlFrame;whiteSpace=wrap;html=1;pointerEvents=0;" parent="1" vertex="1">
          <mxGeometry x="470" y="160" width="460" height="200" as="geometry" />
        </mxCell>
      </root>
    </mxGraphModel>
  </diagram>
</mxfile>
